<svg width="24" height="24" viewBox="0 0 24 24" fill="none" xmlns="http://www.w3.org/2000/svg">
<path d="M20.1211 17.8969C19.679 16.8496 19.0374 15.8984 18.232 15.0961C17.4291 14.2915 16.478 13.65 15.4312 13.207C15.4219 13.2023 15.4125 13.2 15.4031 13.1953C16.8633 12.1406 17.8125 10.4227 17.8125 8.48438C17.8125 5.27344 15.2109 2.67188 12 2.67188C8.78906 2.67188 6.1875 5.27344 6.1875 8.48438C6.1875 10.4227 7.13672 12.1406 8.59687 13.1977C8.5875 13.2023 8.57812 13.2047 8.56875 13.2094C7.51875 13.6523 6.57656 14.2875 5.76797 15.0984C4.96338 15.9013 4.32188 16.8524 3.8789 17.8992C3.44372 18.924 3.20902 20.0228 3.1875 21.1359C3.18687 21.161 3.19126 21.1858 3.2004 21.2091C3.20954 21.2324 3.22326 21.2537 3.24073 21.2716C3.2582 21.2895 3.27909 21.3037 3.30214 21.3134C3.3252 21.3231 3.34998 21.3281 3.375 21.3281H4.78125C4.88437 21.3281 4.9664 21.2461 4.96875 21.1453C5.01562 19.3359 5.74218 17.6414 7.02656 16.357C8.35547 15.0281 10.1203 14.2969 12 14.2969C13.8797 14.2969 15.6445 15.0281 16.9734 16.357C18.2578 17.6414 18.9844 19.3359 19.0312 21.1453C19.0336 21.2484 19.1156 21.3281 19.2187 21.3281H20.625C20.65 21.3281 20.6748 21.3231 20.6978 21.3134C20.7209 21.3037 20.7418 21.2895 20.7593 21.2716C20.7767 21.2537 20.7904 21.2324 20.7996 21.2091C20.8087 21.1858 20.8131 21.161 20.8125 21.1359C20.7891 20.0156 20.557 18.9258 20.1211 17.8969ZM12 12.5156C10.9242 12.5156 9.91172 12.0961 9.15 11.3344C8.38828 10.5727 7.96875 9.56016 7.96875 8.48438C7.96875 7.40859 8.38828 6.39609 9.15 5.63437C9.91172 4.87266 10.9242 4.45312 12 4.45312C13.0758 4.45312 14.0883 4.87266 14.85 5.63437C15.6117 6.39609 16.0312 7.40859 16.0312 8.48438C16.0312 9.56016 15.6117 10.5727 14.85 11.3344C14.0883 12.0961 13.0758 12.5156 12 12.5156Z" fill="black"/>
<g clip-path="url(#clip0_490_155)">
<path d="M1.14844 15.4863C1.19698 15.4863 1.23633 15.447 1.23633 15.3984C1.23633 15.3499 1.19698 15.3105 1.14844 15.3105C1.0999 15.3105 1.06055 15.3499 1.06055 15.3984C1.06055 15.447 1.0999 15.4863 1.14844 15.4863Z" stroke="black" stroke-width="2" stroke-linecap="round" stroke-linejoin="round"/>
<path d="M1.36523 15.4863C1.36133 15.4952 1.36017 15.505 1.36189 15.5145C1.36362 15.524 1.36815 15.5327 1.3749 15.5396L1.37666 15.5414C1.38211 15.5468 1.38643 15.5533 1.38938 15.5604C1.39233 15.5675 1.39384 15.5752 1.39384 15.5829C1.39384 15.5906 1.39233 15.5982 1.38938 15.6053C1.38643 15.6124 1.38211 15.6189 1.37666 15.6243C1.37122 15.6298 1.36476 15.6341 1.35764 15.637C1.35053 15.64 1.34291 15.6415 1.33521 15.6415C1.3275 15.6415 1.31988 15.64 1.31277 15.637C1.30565 15.6341 1.29919 15.6298 1.29375 15.6243L1.29199 15.6226C1.28509 15.6158 1.27632 15.6113 1.26681 15.6096C1.25731 15.6078 1.24751 15.609 1.23867 15.6129C1.23001 15.6166 1.22262 15.6228 1.21741 15.6306C1.21221 15.6385 1.20941 15.6477 1.20937 15.6571V15.6621C1.20937 15.6776 1.2032 15.6926 1.19221 15.7035C1.18122 15.7145 1.16632 15.7207 1.15078 15.7207C1.13524 15.7207 1.12034 15.7145 1.10935 15.7035C1.09836 15.6926 1.09219 15.6776 1.09219 15.6621V15.6595C1.09196 15.6498 1.08882 15.6404 1.08318 15.6325C1.07754 15.6246 1.06965 15.6186 1.06055 15.6152C1.05171 15.6113 1.04191 15.6102 1.0324 15.6119C1.0229 15.6136 1.01413 15.6181 1.00723 15.6249L1.00547 15.6267C1.00003 15.6321 0.993565 15.6364 0.986452 15.6394C0.979338 15.6423 0.971714 15.6438 0.964014 15.6438C0.956314 15.6438 0.948689 15.6423 0.941576 15.6394C0.934463 15.6364 0.928 15.6321 0.922559 15.6267C0.917111 15.6212 0.912789 15.6148 0.90984 15.6076C0.906892 15.6005 0.905374 15.5929 0.905374 15.5852C0.905374 15.5775 0.906892 15.5699 0.90984 15.5628C0.912789 15.5557 0.917111 15.5492 0.922559 15.5437L0.924316 15.542C0.93107 15.5351 0.935601 15.5263 0.937324 15.5168C0.939048 15.5073 0.937884 15.4975 0.933984 15.4887C0.930271 15.48 0.924104 15.4726 0.916244 15.4674C0.908384 15.4622 0.899173 15.4594 0.889746 15.4594H0.884766C0.869226 15.4594 0.854322 15.4532 0.843334 15.4422C0.832345 15.4312 0.826172 15.4163 0.826172 15.4008C0.826172 15.3852 0.832345 15.3703 0.843334 15.3593C0.854322 15.3484 0.869226 15.3422 0.884766 15.3422H0.887402C0.897099 15.342 0.906504 15.3388 0.914394 15.3332C0.922283 15.3275 0.928292 15.3197 0.931641 15.3105C0.93554 15.3017 0.936704 15.2919 0.934981 15.2824C0.933257 15.2729 0.928727 15.2641 0.921973 15.2572L0.920215 15.2555C0.914767 15.25 0.910445 15.2436 0.907497 15.2365C0.904548 15.2293 0.90303 15.2217 0.90303 15.214C0.90303 15.2063 0.904548 15.1987 0.907497 15.1916C0.910445 15.1845 0.914767 15.178 0.920215 15.1726C0.925657 15.1671 0.932119 15.1628 0.939232 15.1598C0.946345 15.1569 0.95397 15.1554 0.96167 15.1554C0.96937 15.1554 0.976995 15.1569 0.984108 15.1598C0.991221 15.1628 0.997683 15.1671 1.00312 15.1726L1.00488 15.1743C1.01179 15.1811 1.02056 15.1856 1.03006 15.1873C1.03956 15.189 1.04937 15.1879 1.0582 15.184H1.06055C1.06921 15.1803 1.0766 15.1741 1.08181 15.1662C1.08701 15.1584 1.08981 15.1492 1.08984 15.1397V15.1348C1.08984 15.1192 1.09602 15.1043 1.10701 15.0933C1.11799 15.0823 1.1329 15.0762 1.14844 15.0762C1.16398 15.0762 1.17888 15.0823 1.18987 15.0933C1.20086 15.1043 1.20703 15.1192 1.20703 15.1348V15.1374C1.20707 15.1468 1.20986 15.156 1.21507 15.1639C1.22027 15.1718 1.22766 15.1779 1.23633 15.1816C1.24516 15.1855 1.25497 15.1867 1.26447 15.185C1.27397 15.1833 1.28274 15.1787 1.28965 15.172L1.29141 15.1702C1.29685 15.1648 1.30331 15.1604 1.31042 15.1575C1.31754 15.1545 1.32516 15.153 1.33286 15.153C1.34056 15.153 1.34819 15.1545 1.3553 15.1575C1.36241 15.1604 1.36887 15.1648 1.37432 15.1702C1.37976 15.1757 1.38409 15.1821 1.38703 15.1892C1.38998 15.1963 1.3915 15.204 1.3915 15.2117C1.3915 15.2194 1.38998 15.227 1.38703 15.2341C1.38409 15.2412 1.37976 15.2477 1.37432 15.2531L1.37256 15.2549C1.3658 15.2618 1.36127 15.2706 1.35955 15.2801C1.35783 15.2896 1.35899 15.2994 1.36289 15.3082V15.3105C1.3666 15.3192 1.37277 15.3266 1.38063 15.3318C1.38849 15.337 1.3977 15.3398 1.40713 15.3398H1.41211C1.42765 15.3398 1.44255 15.346 1.45354 15.357C1.46453 15.368 1.4707 15.3829 1.4707 15.3984C1.4707 15.414 1.46453 15.4289 1.45354 15.4399C1.44255 15.4509 1.42765 15.457 1.41211 15.457H1.40947C1.40005 15.4571 1.39083 15.4599 1.38297 15.4651C1.37511 15.4703 1.36895 15.4777 1.36523 15.4863V15.4863Z" stroke="black" stroke-width="2" stroke-linecap="round" stroke-linejoin="round"/>
</g>
<defs>
<clipPath id="clip0_490_155">
<rect width="0.703125" height="0.703125" fill="white" transform="translate(0.796875 15.0469)"/>
</clipPath>
</defs>
</svg>
